<?xml version="1.0"?>
<svg xmlns="http://www.w3.org/2000/svg" width="575" height="458" viewBox="0 0 575 458" fill="none">
<circle cx="342.465" cy="228.963" r="228.963" fill="#B9D9FF"/>
<g filter="url(#filter0_d)">
<path d="M493.518 413.533H66.1367C48.9578 413.533 35 399.575 35 382.34V118.099C35 100.92 48.9578 86.9617 66.1367 86.9617H493.518C510.697 86.9617 524.655 100.92 524.655 118.099V382.34C524.655 399.575 510.697 413.533 493.518 413.533Z" fill="#DDEAF2"/>
</g>
<g opacity="0.37">
<path opacity="0.23" d="M222.555 203.203H77.6647V220.495H222.555V203.203Z" fill="#35336F"/>
<path opacity="0.23" d="M306.698 203.203H245.385V220.495H306.698V203.203Z" fill="#35336F"/>
<path opacity="0.23" d="M391.236 203.203H329.923V220.495H391.236V203.203Z" fill="#35336F"/>
</g>
<g opacity="0.37">
<path opacity="0.23" d="M124.228 239.03H77.6647V256.322H124.228V239.03Z" fill="#35336F"/>
<path opacity="0.23" d="M255.443 239.03H142.029V256.322H255.443V239.03Z" fill="#35336F"/>
<path opacity="0.23" d="M351.849 239.03H272.905V256.322H351.849V239.03Z" fill="#35336F"/>
</g>
<g opacity="0.37">
<path opacity="0.23" d="M178.195 274.858H77.6647V292.15H178.195V274.858Z" fill="#35336F"/>
<path opacity="0.23" d="M256.404 274.858H195.091V292.15H256.404V274.858Z" fill="#35336F"/>
<path opacity="0.23" d="M435.2 274.858H274.713V292.15H435.2V274.858Z" fill="#35336F"/>
</g>
<g opacity="0.37">
<path opacity="0.23" d="M139.373 310.685H77.6647V327.977H139.373V310.685Z" fill="#35336F"/>
<path opacity="0.23" d="M189.497 310.685H158.869V327.977H189.497V310.685Z" fill="#35336F"/>
<path opacity="0.23" d="M270.531 310.685H209.219V327.977H270.531V310.685Z" fill="#35336F"/>
<path opacity="0.23" d="M350.945 310.685H289.632V327.977H350.945V310.685Z" fill="#35336F"/>
</g>
<path d="M85.576 129.457C89.9141 129.457 93.4308 125.941 93.4308 121.602C93.4308 117.264 89.9141 113.748 85.576 113.748C81.2379 113.748 77.7212 117.264 77.7212 121.602C77.7212 125.941 81.2379 129.457 85.576 129.457Z" fill="#EF4136"/>
<path d="M108.575 129.457C112.913 129.457 116.43 125.941 116.43 121.602C116.43 117.264 112.913 113.748 108.575 113.748C104.237 113.748 100.721 117.264 100.721 121.602C100.721 125.941 104.237 129.457 108.575 129.457Z" fill="#EFB348"/>
<path d="M131.518 129.457C135.856 129.457 139.373 125.941 139.373 121.602C139.373 117.264 135.856 113.748 131.518 113.748C127.18 113.748 123.663 117.264 123.663 121.602C123.663 125.941 127.18 129.457 131.518 129.457Z" fill="#39B54A"/>
<g style="mix-blend-mode:multiply">
<path d="M124.228 71.817H545.507V368.665L124.228 71.817Z" fill="#02E1FF"/>
</g>
<g filter="url(#filter1_d)">
<path d="M375.809 151.044C404.178 151.044 427.176 128.046 427.176 99.6765C427.176 71.3069 404.178 48.3088 375.809 48.3088C347.439 48.3088 324.442 71.3069 324.442 99.6765C324.442 128.046 347.439 151.044 375.809 151.044Z" fill="#0061EB"/>
<path d="M375.47 70.1217C373.04 70.1217 370.779 70.3477 368.745 70.6868C362.811 71.7605 361.681 73.9644 361.681 78.0331V83.4016H375.752V85.2099H361.681H356.369C352.301 85.2099 348.684 87.6964 347.554 92.3302C346.254 97.6986 346.198 101.033 347.554 106.627C348.571 110.809 350.944 113.748 355.013 113.748H359.873V107.305C359.873 102.672 363.885 98.5463 368.688 98.5463H382.759C386.658 98.5463 389.823 95.3252 389.823 91.3695V78.0331C389.823 74.1904 386.602 71.3649 382.759 70.6868C380.386 70.2912 377.843 70.1217 375.47 70.1217ZM367.841 74.473C369.31 74.473 370.497 75.6597 370.497 77.1855C370.497 78.6547 369.31 79.8414 367.841 79.8414C366.371 79.8414 365.185 78.6547 365.185 77.1855C365.185 75.6597 366.371 74.473 367.841 74.473Z" fill="white"/>
<path d="M391.575 85.21V91.4826C391.575 96.3424 387.45 100.411 382.759 100.411H368.688C364.846 100.411 361.625 103.689 361.625 107.588V120.981C361.625 124.824 364.959 127.027 368.688 128.158C373.153 129.457 377.447 129.683 382.759 128.158C386.319 127.14 389.823 125.05 389.823 120.981V115.556H375.752V113.748H389.823H396.887C400.955 113.748 402.481 110.866 403.95 106.627C405.42 102.219 405.363 97.9812 403.95 92.3302C402.933 88.2615 401.012 85.21 396.887 85.21H391.575ZM383.663 119.173C385.133 119.173 386.319 120.359 386.319 121.829C386.319 123.298 385.133 124.541 383.663 124.541C382.194 124.541 381.007 123.354 381.007 121.829C381.007 120.359 382.194 119.173 383.663 119.173Z" fill="white"/>
</g>
<g filter="url(#filter2_d)">
<path d="M243.803 151.044C272.172 151.044 295.17 128.046 295.17 99.6765C295.17 71.3069 272.172 48.3088 243.803 48.3088C215.433 48.3088 192.435 71.3069 192.435 99.6765C192.435 128.046 215.433 151.044 243.803 151.044Z" fill="#0061EB"/>
<path d="M263.129 77.0725H225.493L206.676 95.8904L244.311 131.153L281.946 95.8904L263.129 77.0725Z" fill="white"/>
</g>
<g filter="url(#filter3_d)">
<path d="M507.984 151.044C536.354 151.044 559.351 128.046 559.351 99.6765C559.351 71.3069 536.354 48.3088 507.984 48.3088C479.615 48.3088 456.617 71.3069 456.617 99.6765C456.617 128.046 479.615 151.044 507.984 151.044Z" fill="#0061EB"/>
<path d="M479.843 88.8831H489.788C492.727 88.8831 494.818 89.7307 496.117 91.426C497.417 93.0648 497.869 95.3252 497.417 98.2072C497.247 99.507 496.852 100.807 496.287 102.05C495.722 103.293 494.931 104.423 493.913 105.441C492.67 106.74 491.37 107.531 489.958 107.87C488.545 108.21 487.076 108.379 485.606 108.379H481.142L479.73 115.443H474.587L479.843 88.8831ZM484.137 93.0648L481.933 104.197C482.103 104.197 482.216 104.254 482.385 104.254C482.555 104.254 482.724 104.254 482.894 104.254C485.267 104.254 487.245 104.028 488.828 103.576C490.41 103.067 491.483 101.259 491.992 98.1507C492.444 95.5512 491.992 94.082 490.636 93.6864C489.336 93.2908 487.697 93.1213 485.719 93.1213C485.437 93.1213 485.154 93.1778 484.872 93.1778C484.646 93.1213 484.363 93.1213 484.137 93.0648Z" fill="white"/>
<path d="M503.237 81.7628H508.323L506.854 88.8266H511.431C513.974 88.8831 515.839 89.3917 517.082 90.4089C518.325 91.3695 518.721 93.2909 518.212 96.0599L515.726 108.379H510.527L512.901 96.625C513.127 95.3818 513.07 94.5341 512.675 93.969C512.279 93.4604 511.431 93.1779 510.132 93.1779L506.006 93.1214L502.955 108.323H497.869L503.237 81.7628Z" fill="white"/>
<path d="M523.75 88.8831H533.696C536.635 88.8831 538.725 89.7307 540.025 91.426C541.325 93.0648 541.777 95.3252 541.325 98.2072C541.155 99.507 540.76 100.807 540.195 102.05C539.63 103.293 538.838 104.423 537.821 105.441C536.578 106.74 535.278 107.531 533.866 107.87C532.453 108.21 530.984 108.379 529.514 108.379H525.05L523.637 115.443H518.495L523.75 88.8831ZM528.045 93.0648L525.841 104.197C526.011 104.197 526.124 104.254 526.293 104.254C526.463 104.254 526.632 104.254 526.802 104.254C529.175 104.254 531.153 104.028 532.735 103.576C534.318 103.067 535.391 101.259 535.9 98.1507C536.352 95.5512 535.9 94.082 534.544 93.6864C533.244 93.2908 531.605 93.1213 529.627 93.1213C529.345 93.1213 529.062 93.1778 528.78 93.1778C528.554 93.1213 528.271 93.1213 528.045 93.0648Z" fill="white"/>
</g>
<g filter="url(#filter4_d)">
<path d="M243.803 284.86C272.172 284.86 295.17 261.862 295.17 233.492C295.17 205.123 272.172 182.125 243.803 182.125C215.433 182.125 192.435 205.123 192.435 233.492C192.435 261.862 215.433 284.86 243.803 284.86Z" fill="#0061EB"/>
<path d="M243.463 268.529C242.559 268.529 241.655 268.303 240.864 267.851L232.67 262.991C231.427 262.313 232.049 262.087 232.444 261.917C234.083 261.352 234.422 261.239 236.174 260.222C236.343 260.109 236.569 260.165 236.795 260.278L243.068 264.008C243.294 264.121 243.633 264.121 243.803 264.008L268.328 249.824C268.554 249.711 268.723 249.428 268.723 249.146V220.834C268.723 220.552 268.554 220.326 268.328 220.156L243.803 205.972C243.576 205.859 243.294 205.859 243.068 205.972L218.543 220.156C218.317 220.269 218.147 220.552 218.147 220.834V249.146C218.147 249.428 218.317 249.654 218.543 249.824L225.267 253.723C228.941 255.531 231.144 253.384 231.144 251.237V223.264C231.144 222.869 231.483 222.529 231.879 222.529H234.987C235.383 222.529 235.722 222.869 235.722 223.264V251.237C235.722 256.096 233.066 258.922 228.432 258.922C227.019 258.922 225.889 258.922 222.781 257.396L216.339 253.667C214.757 252.762 213.74 251.011 213.74 249.202V220.891C213.74 219.026 214.7 217.331 216.339 216.426L240.864 202.242C242.39 201.338 244.481 201.338 246.006 202.242L270.531 216.426C272.114 217.331 273.131 219.082 273.131 220.891V249.202C273.131 251.067 272.17 252.762 270.531 253.667L246.006 267.851C245.272 268.303 244.368 268.529 243.463 268.529Z" fill="white"/>
<path d="M251.036 249.033C240.299 249.033 238.039 244.116 238.039 239.991C238.039 239.596 238.378 239.257 238.773 239.257H241.938C242.277 239.257 242.616 239.539 242.616 239.878C243.068 243.099 244.537 244.738 251.036 244.738C256.235 244.738 258.382 243.551 258.382 240.839C258.382 239.257 257.76 238.07 249.736 237.279C243.011 236.601 238.886 235.131 238.886 229.763C238.886 224.79 243.068 221.851 250.075 221.851C257.93 221.851 261.829 224.564 262.338 230.441C262.338 230.667 262.281 230.837 262.168 231.006C262.055 231.119 261.829 231.232 261.66 231.232H258.495C258.156 231.232 257.873 231.006 257.817 230.667C257.026 227.276 255.217 226.203 250.132 226.203C244.481 226.203 243.803 228.181 243.803 229.65C243.803 231.458 244.594 231.967 252.222 232.984C259.738 234.001 263.355 235.414 263.355 240.669C263.242 245.981 258.834 249.033 251.036 249.033Z" fill="white"/>
</g>
<g filter="url(#filter5_d)">
<path d="M507.984 284.86C536.354 284.86 559.351 261.862 559.351 233.492C559.351 205.123 536.354 182.125 507.984 182.125C479.615 182.125 456.617 205.123 456.617 233.492C456.617 261.862 479.615 284.86 507.984 284.86Z" fill="#0061EB"/>
<path d="M514.144 209.758H507.589V216.313H514.144V209.758Z" fill="white"/>
<path d="M514.144 218.009H507.589V224.564H514.144V218.009Z" fill="white"/>
<path d="M514.144 226.203H507.589V232.758H514.144V226.203Z" fill="white"/>
<path d="M506.176 218.009H499.621V224.564H506.176V218.009Z" fill="white"/>
<path d="M506.176 226.203H499.621V232.758H506.176V226.203Z" fill="white"/>
<path d="M498.265 218.009H491.71V224.564H498.265V218.009Z" fill="white"/>
<path d="M498.265 226.203H491.71V232.758H498.265V226.203Z" fill="white"/>
<path d="M490.41 226.203H483.855V232.758H490.41V226.203Z" fill="white"/>
<path d="M522.055 226.203H515.5V232.758H522.055V226.203Z" fill="white"/>
<path d="M501.542 256.04C477.469 256.04 480.295 234.849 480.295 234.849C480.295 234.849 513.692 234.849 520.473 234.849C527.254 234.849 529.514 232.701 529.514 232.701C529.514 232.701 525.672 227.728 530.193 221.795C535.222 224.677 535.052 228.972 535.052 228.972C535.052 228.972 540.195 227.276 543.359 230.158C541.607 235.922 533.753 235.583 533.753 235.583C533.753 235.583 526.35 256.04 501.542 256.04Z" fill="white"/>
</g>
<g filter="url(#filter6_d)">
<path d="M375.809 418.676C404.178 418.676 427.176 395.678 427.176 367.308C427.176 338.939 404.178 315.941 375.809 315.941C347.439 315.941 324.442 338.939 324.442 367.308C324.442 395.678 347.439 418.676 375.809 418.676Z" fill="#0061EB"/>
<path d="M409.714 363.07C409.093 358.662 406.889 355.328 403.216 352.842C399.204 350.129 394.796 349.677 390.106 350.525C384.624 351.485 380.612 353.802 377.278 358.21C375.865 360.075 374.791 362.053 374.113 364.2H359.364C358.686 364.2 358.347 364.652 358.234 364.935C357.613 366.122 356.482 368.495 355.917 369.964C355.578 370.755 355.804 371.321 356.765 371.321H365.58C365.128 371.942 364.733 372.507 364.337 373.016C362.246 375.333 359.647 376.463 356.539 376.067C352.922 375.559 350.379 372.507 350.323 368.834C350.266 365.104 351.905 362.109 355.013 360.132C357.613 358.436 360.438 358.041 363.32 359.453C364.281 359.905 364.789 360.414 365.467 361.205C366.089 361.883 366.089 361.827 366.824 361.657C369.649 360.923 371.627 360.358 374.509 359.623C375.074 359.51 375.244 359.284 374.961 358.832C373.831 356.176 372.079 353.972 369.649 352.333C365.92 349.79 361.794 349.282 357.5 350.073C352.244 351.033 347.893 353.746 344.672 358.041C341.62 361.996 340.151 366.461 340.773 371.49C341.281 375.728 343.203 379.119 346.593 381.662C350.266 384.431 354.448 385.279 358.969 384.713C364.45 383.979 368.745 381.266 372.079 376.915C372.814 375.898 373.492 374.881 374 373.807C374.792 376.633 376.317 379.006 378.578 380.984C381.799 383.753 385.585 384.939 389.767 384.996C390.953 384.883 392.196 384.826 393.44 384.6C397.734 383.753 401.407 381.775 404.459 378.723C408.697 374.316 410.505 369.286 409.714 363.07ZM394.852 375.163C392.422 376.406 389.88 376.519 387.393 375.446C384.116 373.977 382.364 370.36 383.155 366.743C384.172 362.448 386.941 359.736 391.179 358.775C395.53 357.758 399.712 360.358 400.56 364.878C400.673 365.33 400.673 365.783 400.673 366.404C400.447 370.303 398.469 373.242 394.852 375.163Z" fill="white"/>
<path d="M507.984 418.676C536.354 418.676 559.351 395.678 559.351 367.308C559.351 338.939 536.354 315.941 507.984 315.941C479.615 315.941 456.617 338.939 456.617 367.308C456.617 395.678 479.615 418.676 507.984 418.676Z" fill="#0061EB"/>
<path d="M533.866 344.987H482.668C479.278 344.987 476.565 347.756 476.565 351.09V383.696C476.565 387.087 479.334 389.799 482.668 389.799H533.866C537.256 389.799 539.969 387.03 539.969 383.696V351.09C539.969 347.756 537.256 344.987 533.866 344.987ZM495.044 356.176H537.03V365.5H495.044V356.176ZM482.725 347.982H533.922C535.674 347.982 537.087 349.395 537.087 351.146V353.237H479.56V351.146C479.56 349.395 480.973 347.982 482.725 347.982ZM479.56 383.696V356.176H492.049V386.861H482.668C480.973 386.861 479.56 385.448 479.56 383.696ZM533.866 386.861H495.044V368.495H537.03V383.696C537.03 385.448 535.617 386.861 533.866 386.861Z" fill="white"/>
</g>
<g filter="url(#filter7_d)">
<path d="M375.809 284.86C404.178 284.86 427.176 261.862 427.176 233.492C427.176 205.123 404.178 182.125 375.809 182.125C347.439 182.125 324.442 205.123 324.442 233.492C324.442 261.862 347.439 284.86 375.809 284.86Z" fill="#0061EB"/>
<path d="M371.677 201.583C374.153 200.154 377.202 200.154 379.677 201.583L400.876 213.822C403.351 215.251 404.876 217.892 404.876 220.75V245.228C404.876 248.086 403.351 250.727 400.876 252.156L379.677 264.395C377.202 265.824 374.153 265.824 371.677 264.395L350.479 252.156C348.004 250.727 346.479 248.086 346.479 245.228V220.75C346.479 217.892 348.004 215.251 350.479 213.822L371.677 201.583Z" fill="white"/>
<path d="M362.965 250.123V216.96H369.929V229.041H381.426V216.96H388.39V250.123H381.426V235.617H369.929V250.123H362.965Z" fill="#0061EB"/>
</g>
<defs>
<filter id="filter0_d" x="0" y="55.9617" width="559.655" height="396.572" filterUnits="userSpaceOnUse" color-interpolation-filters="sRGB">
<feFlood flood-opacity="0" result="BackgroundImageFix"/>
<feColorMatrix in="SourceAlpha" type="matrix" values="0 0 0 0 0 0 0 0 0 0 0 0 0 0 0 0 0 0 127 0"/>
<feOffset dy="4"/>
<feGaussianBlur stdDeviation="17.5"/>
<feColorMatrix type="matrix" values="0 0 0 0 0.0117647 0 0 0 0 0.105882 0 0 0 0 0.305882 0 0 0 0.09 0"/>
<feBlend mode="normal" in2="BackgroundImageFix" result="effect1_dropShadow"/>
<feBlend mode="normal" in="SourceGraphic" in2="effect1_dropShadow" result="shape"/>
</filter>
<filter id="filter1_d" x="299.442" y="41.3088" width="142.734" height="142.735" filterUnits="userSpaceOnUse" color-interpolation-filters="sRGB">
<feFlood flood-opacity="0" result="BackgroundImageFix"/>
<feColorMatrix in="SourceAlpha" type="matrix" values="0 0 0 0 0 0 0 0 0 0 0 0 0 0 0 0 0 0 127 0"/>
<feOffset dx="-5" dy="13"/>
<feGaussianBlur stdDeviation="10"/>
<feColorMatrix type="matrix" values="0 0 0 0 0.0117647 0 0 0 0 0.105882 0 0 0 0 0.305882 0 0 0 0.22 0"/>
<feBlend mode="normal" in2="BackgroundImageFix" result="effect1_dropShadow"/>
<feBlend mode="normal" in="SourceGraphic" in2="effect1_dropShadow" result="shape"/>
</filter>
<filter id="filter2_d" x="167.435" y="41.3088" width="142.734" height="142.735" filterUnits="userSpaceOnUse" color-interpolation-filters="sRGB">
<feFlood flood-opacity="0" result="BackgroundImageFix"/>
<feColorMatrix in="SourceAlpha" type="matrix" values="0 0 0 0 0 0 0 0 0 0 0 0 0 0 0 0 0 0 127 0"/>
<feOffset dx="-5" dy="13"/>
<feGaussianBlur stdDeviation="10"/>
<feColorMatrix type="matrix" values="0 0 0 0 0.0117647 0 0 0 0 0.105882 0 0 0 0 0.305882 0 0 0 0.22 0"/>
<feBlend mode="normal" in2="BackgroundImageFix" result="effect1_dropShadow"/>
<feBlend mode="normal" in="SourceGraphic" in2="effect1_dropShadow" result="shape"/>
</filter>
<filter id="filter3_d" x="431.617" y="41.3088" width="142.734" height="142.735" filterUnits="userSpaceOnUse" color-interpolation-filters="sRGB">
<feFlood flood-opacity="0" result="BackgroundImageFix"/>
<feColorMatrix in="SourceAlpha" type="matrix" values="0 0 0 0 0 0 0 0 0 0 0 0 0 0 0 0 0 0 127 0"/>
<feOffset dx="-5" dy="13"/>
<feGaussianBlur stdDeviation="10"/>
<feColorMatrix type="matrix" values="0 0 0 0 0.0117647 0 0 0 0 0.105882 0 0 0 0 0.305882 0 0 0 0.22 0"/>
<feBlend mode="normal" in2="BackgroundImageFix" result="effect1_dropShadow"/>
<feBlend mode="normal" in="SourceGraphic" in2="effect1_dropShadow" result="shape"/>
</filter>
<filter id="filter4_d" x="167.435" y="175.125" width="142.734" height="142.735" filterUnits="userSpaceOnUse" color-interpolation-filters="sRGB">
<feFlood flood-opacity="0" result="BackgroundImageFix"/>
<feColorMatrix in="SourceAlpha" type="matrix" values="0 0 0 0 0 0 0 0 0 0 0 0 0 0 0 0 0 0 127 0"/>
<feOffset dx="-5" dy="13"/>
<feGaussianBlur stdDeviation="10"/>
<feColorMatrix type="matrix" values="0 0 0 0 0.0117647 0 0 0 0 0.105882 0 0 0 0 0.305882 0 0 0 0.22 0"/>
<feBlend mode="normal" in2="BackgroundImageFix" result="effect1_dropShadow"/>
<feBlend mode="normal" in="SourceGraphic" in2="effect1_dropShadow" result="shape"/>
</filter>
<filter id="filter5_d" x="431.617" y="175.125" width="142.734" height="142.735" filterUnits="userSpaceOnUse" color-interpolation-filters="sRGB">
<feFlood flood-opacity="0" result="BackgroundImageFix"/>
<feColorMatrix in="SourceAlpha" type="matrix" values="0 0 0 0 0 0 0 0 0 0 0 0 0 0 0 0 0 0 127 0"/>
<feOffset dx="-5" dy="13"/>
<feGaussianBlur stdDeviation="10"/>
<feColorMatrix type="matrix" values="0 0 0 0 0.0117647 0 0 0 0 0.105882 0 0 0 0 0.305882 0 0 0 0.22 0"/>
<feBlend mode="normal" in2="BackgroundImageFix" result="effect1_dropShadow"/>
<feBlend mode="normal" in="SourceGraphic" in2="effect1_dropShadow" result="shape"/>
</filter>
<filter id="filter6_d" x="299.442" y="308.941" width="274.91" height="142.735" filterUnits="userSpaceOnUse" color-interpolation-filters="sRGB">
<feFlood flood-opacity="0" result="BackgroundImageFix"/>
<feColorMatrix in="SourceAlpha" type="matrix" values="0 0 0 0 0 0 0 0 0 0 0 0 0 0 0 0 0 0 127 0"/>
<feOffset dx="-5" dy="13"/>
<feGaussianBlur stdDeviation="10"/>
<feColorMatrix type="matrix" values="0 0 0 0 0.0117647 0 0 0 0 0.105882 0 0 0 0 0.305882 0 0 0 0.22 0"/>
<feBlend mode="normal" in2="BackgroundImageFix" result="effect1_dropShadow"/>
<feBlend mode="normal" in="SourceGraphic" in2="effect1_dropShadow" result="shape"/>
</filter>
<filter id="filter7_d" x="299.442" y="175.125" width="142.734" height="142.735" filterUnits="userSpaceOnUse" color-interpolation-filters="sRGB">
<feFlood flood-opacity="0" result="BackgroundImageFix"/>
<feColorMatrix in="SourceAlpha" type="matrix" values="0 0 0 0 0 0 0 0 0 0 0 0 0 0 0 0 0 0 127 0"/>
<feOffset dx="-5" dy="13"/>
<feGaussianBlur stdDeviation="10"/>
<feColorMatrix type="matrix" values="0 0 0 0 0.0117647 0 0 0 0 0.105882 0 0 0 0 0.305882 0 0 0 0.22 0"/>
<feBlend mode="normal" in2="BackgroundImageFix" result="effect1_dropShadow"/>
<feBlend mode="normal" in="SourceGraphic" in2="effect1_dropShadow" result="shape"/>
</filter>
</defs>
</svg>
